<?xml version="1.0" encoding="UTF-8"?>
<svg id="Layer_1" data-name="Layer 1" xmlns="http://www.w3.org/2000/svg" viewBox="0 0 48 48">
  <defs>
    <style>
      .cls-1 {
        fill: #a55130;
        fill-rule: evenodd;
      }
    </style>
  </defs>
  <path class="cls-1" d="m31.04,32.48c-.52-.39-1.09-.7-1.7-.93-.22-.08-.45-.16-.69-.22l-.27-.07-.18.22c-.66.82-1.42,1.56-2.27,2.18-.77.57-1.61,1.05-2.49,1.42-.96.4-1.97.68-3.01.82-.93.13-1.92.14-2.87.04-.78-.08-1.56-.24-2.3-.47-.91-.28-1.79-.68-2.61-1.17-.72-.43-1.4-.94-2.02-1.52-2.43-2.27-3.83-5.47-3.83-8.78s1.39-6.52,3.83-8.78c.62-.58,1.3-1.09,2.02-1.52.82-.5,1.7-.89,2.61-1.17.75-.23,1.52-.39,2.31-.47.95-.1,1.94-.08,2.88.04,1.04.14,2.05.42,3.01.82.88.37,1.72.84,2.49,1.42.85.62,1.61,1.36,2.27,2.18l.18.22.27-.07c.24-.06.47-.14.69-.22.61-.23,1.18-.55,1.7-.93.32-.24.62-.51.9-.8,1.22-1.28,1.89-2.95,1.89-4.7,0-.32-.02-.64-.07-.95l-.05-.37h-3.4l.13.53c.06.26.09.52.09.79,0,1.06-.49,2.07-1.32,2.75-1.81-1.67-4-2.89-6.36-3.53-.81-.22-1.64-.38-2.47-.46-.39-.04-.78-.06-1.18-.07h-.78c-.35,0-.71.03-1.05.06-.86.08-1.71.23-2.54.46-1.03.28-2.03.66-2.97,1.15-.83.42-1.63.93-2.38,1.51-3.8,2.93-5.98,7.35-5.98,12.13s2.18,9.2,5.98,12.13c.74.58,1.54,1.08,2.38,1.51.95.49,1.95.87,2.97,1.15.83.22,1.68.38,2.54.46.97.09,2.02.09,3-.01.83-.08,1.67-.24,2.47-.46,2.36-.64,4.55-1.86,6.36-3.53.83.68,1.32,1.68,1.32,2.75,0,.28-.03.55-.1.81l-.13.53h3.4l.06-.37c.05-.31.07-.64.07-.98,0-1.75-.67-3.42-1.88-4.7-.27-.29-.58-.56-.9-.8Z"/>
  <path class="cls-1" d="m33.36,27.69c-.5-.31-1.02-.58-1.56-.81-.24-.11-.5-.21-.76-.3l-.45-.16-.11.46c-.19.75-.45,1.5-.79,2.21l-.2.43.45.16c.51.18,1.01.41,1.47.68.2.12.4.24.6.38,2.41,1.66,3.85,4.36,3.85,7.23,0,.3-.01.59-.04.87l-.05.48h3.32l.03-.4c.03-.31.04-.63.04-.95,0-4.2-2.17-8.05-5.8-10.28Z"/>
  <path class="cls-1" d="m37.29,23.99c4.52-3.27,7.21-8.46,7.21-13.99,0-.31,0-.61-.02-.91l-.02-.41h-3.31l.03.46c.02.28.03.57.03.86,0,5.05-2.8,9.74-7.3,12.24-.14.08-.29.16-.44.23-.64.33-1.3.61-1.97.83-.12.04-.24.08-.35.11l-.31.1v.33s0,.09,0,.14,0,.09,0,.14v.33s.3.1.3.1c.12.04.24.08.36.12.67.23,1.34.5,1.97.83.15.07.29.15.44.23,4.5,2.5,7.3,7.19,7.3,12.24,0,.3,0,.6-.03.88l-.03.46h3.31l.02-.41c.02-.3.03-.62.03-.94,0-5.53-2.68-10.71-7.21-13.99Z"/>
  <path class="cls-1" d="m35.86,10c0,2.87-1.44,5.57-3.86,7.23-.19.13-.39.26-.6.38-.47.27-.96.5-1.47.68l-.45.16.2.43c.34.71.6,1.45.79,2.21l.11.46.45-.16c.26-.09.51-.19.75-.3.54-.23,1.07-.51,1.56-.81,3.63-2.24,5.8-6.08,5.8-10.28,0-.3-.01-.62-.04-.92l-.03-.4h-3.32l.05.47c.03.28.04.57.04.85Z"/>
</svg>