<?xml version="1.0" encoding="UTF-8"?>
<svg id="Layer_1" data-name="Layer 1" xmlns="http://www.w3.org/2000/svg" viewBox="0 0 180 180">
  <defs>
    <style>
      .cls-1 {
        fill: #d9d2c6;
      }
    </style>
  </defs>
  <path class="cls-1" d="m113.23,117.98c-1.72-1.29-3.61-2.32-5.61-3.08-.72-.28-1.48-.52-2.27-.73l-.9-.24-.58.73c-2.17,2.72-4.69,5.15-7.48,7.21-2.55,1.88-5.31,3.45-8.22,4.67-3.17,1.33-6.51,2.24-9.93,2.71-3.07.42-6.34.48-9.49.15-2.58-.27-5.14-.79-7.6-1.56-3.02-.94-5.91-2.24-8.61-3.87-2.37-1.42-4.62-3.11-6.67-5.03-8.02-7.48-12.63-18.04-12.63-28.98s4.6-21.51,12.63-28.99c2.03-1.9,4.27-3.59,6.67-5.03,2.72-1.63,5.62-2.93,8.61-3.86,2.46-.76,5.02-1.29,7.61-1.56,3.15-.33,6.41-.28,9.49.15,3.42.46,6.76,1.37,9.93,2.71,2.91,1.22,5.67,2.79,8.22,4.67,2.79,2.06,5.31,4.49,7.48,7.21l.58.73.9-.24c.78-.21,1.54-.45,2.26-.73,2.01-.76,3.9-1.8,5.61-3.08,1.05-.78,2.05-1.67,2.96-2.63,4.01-4.23,6.22-9.74,6.22-15.51,0-1.04-.07-2.1-.22-3.14l-.17-1.23h-11.21l.41,1.75c.2.84.3,1.72.3,2.61,0,3.51-1.61,6.82-4.35,9.06-5.96-5.52-13.19-9.54-20.97-11.66-2.67-.73-5.41-1.25-8.16-1.52-1.28-.13-2.58-.21-3.88-.24h-2.56c-1.16.03-2.33.1-3.46.21-2.84.26-5.66.77-8.38,1.51-3.39.91-6.69,2.18-9.81,3.78-2.73,1.39-5.38,3.07-7.85,4.98-12.54,9.67-19.73,24.26-19.73,40.04s7.19,30.37,19.73,40.03c2.45,1.9,5.09,3.57,7.85,4.98,3.12,1.6,6.42,2.88,9.81,3.78,2.73.74,5.55,1.25,8.38,1.51,3.2.31,6.66.3,9.91-.04,2.75-.28,5.5-.79,8.16-1.52,7.79-2.12,15.01-6.14,20.98-11.66,2.74,2.24,4.35,5.56,4.35,9.07,0,.91-.11,1.81-.32,2.67l-.43,1.76h11.22l.18-1.21c.16-1.04.23-2.12.23-3.22,0-5.77-2.21-11.28-6.22-15.51-.91-.96-1.9-1.84-2.96-2.63v.02Zm7.64-15.8c-1.64-1.01-3.37-1.91-5.15-2.69-.81-.35-1.65-.68-2.49-.99l-1.48-.53-.38,1.53c-.61,2.49-1.49,4.95-2.6,7.31l-.67,1.42,1.48.53c1.69.61,3.33,1.36,4.87,2.26.67.39,1.33.8,1.97,1.24,7.97,5.46,12.72,14.38,12.72,23.86,0,.98-.05,1.94-.14,2.86l-.16,1.57h10.96l.11-1.31c.08-1.02.13-2.07.13-3.12,0-13.87-7.16-26.56-19.14-33.94h-.03Zm12.98-12.22c14.93-10.81,23.78-27.91,23.78-46.15,0-1.01-.03-2.02-.08-3.02l-.07-1.35h-10.92l.1,1.52c.06.94.09,1.89.09,2.85,0,16.67-9.24,32.15-24.11,40.41-.47.26-.95.52-1.44.77-2.1,1.08-4.29,2-6.51,2.74-.39.13-.78.26-1.17.38l-1.03.32.03,1.07v.93l-.03,1.08,1.03.32c.39.12.78.25,1.17.38,2.22.74,4.41,1.67,6.51,2.74.48.25.96.5,1.44.77,14.87,8.25,24.1,23.74,24.1,40.41,0,1-.03,1.98-.1,2.91l-.1,1.52h10.92l.08-1.34c.06-.99.09-2.03.09-3.09,0-18.24-8.85-35.35-23.78-46.16h0Zm-4.73-46.16c0,9.47-4.76,18.39-12.72,23.86-.63.44-1.3.85-1.97,1.24-1.54.89-3.18,1.65-4.86,2.25l-1.48.53.67,1.42c1.11,2.34,1.98,4.8,2.6,7.31l.38,1.53,1.49-.53c.86-.31,1.7-.64,2.49-.99,1.78-.77,3.52-1.68,5.16-2.69,11.99-7.39,19.14-20.08,19.14-33.94,0-1.01-.04-2.03-.12-3.05l-.1-1.31h-10.95l.15,1.56c.09.93.14,1.87.14,2.8h-.02Z"/>
</svg>